<?xml version="1.0" encoding="UTF-8"?>
<svg id="Layer_2" data-name="Layer 2" xmlns="http://www.w3.org/2000/svg" viewBox="0 0 433.01 446.27">
  <defs>
    <style>
      .cls-1 {
        fill: #e05a3b;
      }
    </style>
  </defs>
  <g id="reels">
    <path class="cls-1" d="M388.27,197.87l44.74-25.84v138.18c0,9.22-4.92,17.75-12.91,22.36l-32.47,18.75-42.72,24.67-42.94,24.79-42.74,24.67-29.79,17.33c-8,4.65-17.88,4.67-25.89,.04l-30.7-17.73-44.17-25.5-44.15-25.49-44.13-25.48-27.49-15.87c-7.99-4.61-12.91-13.14-12.91-22.36v-36.16l40.47,23.36,44.08,25.45h0s44.13,25.48,44.13,25.48l44.17,25.5,43.66,25.21v-.14l42.72-24.66,42.76-24.69,43.14-24.91,42.71-24.66,.22-51.15-42.7,24.65-43.35,25.03-42.78,24.7-42.72,24.66v.09l-43.66-25.21-44.17-25.5-44.1-25.46-44.05-25.43L0,223.15v-87.23c0-9.22,4.92-17.75,12.91-22.36l30.28-17.49,43.5-25.11,42.63-24.61,43.05-24.86L203.6,3.46c7.99-4.61,17.83-4.61,25.82,0l27.75,16.02-44.14,25.49-43.05,24.85-42.63,24.61-43.51,25.12,43.96,25.38,43.51-25.12,42.63-24.61,43.05-24.85,44.14-25.48,87.92,50.76,43.96,25.38-44.53,25.71-42.66,24.63-43.77,25.27-42.36,24.46-.46-.27v.53l-42.72,24.67-43.66-25.21v-.35l42.87-24.76,43.51-25.11,42.63-24.61,43.05-24.86-43.9-25.35-43.02,24.88-42.58,24.64-43.46,25.14-43.13,24.96-44.2-25.52-43.96-25.38-.06,51.04,44,25.4,44.08,25.45,44.17,25.5,43.66,25.21v-.04l42.72-24.67,42.8-24.71,43.56-25.15,42.68-24.64Z"/>
  </g>
</svg>