<svg width="38" height="26" viewBox="0 0 38 26" fill="none" xmlns="http://www.w3.org/2000/svg">
<path d="M16.7704 7H34.8957" stroke="#FF755C" stroke-width="1.5" stroke-linecap="round"/>
<path opacity="0.34" d="M19.7913 12H31.8748" stroke="#FF755C" stroke-width="1.5" stroke-linecap="round"/>
<path d="M23.8192 17H27.847" stroke="#FF755C" stroke-width="1.5" stroke-linecap="round"/>
<path d="M7.70745 22.3958C7.59584 22.3958 7.48424 22.355 7.39613 22.2675L3.83064 18.7267C3.66029 18.5575 3.66029 18.2775 3.83064 18.1083C4.00098 17.9392 4.28293 17.9392 4.45328 18.1083L7.70745 21.34L10.9616 18.1083C11.132 17.9392 11.4139 17.9392 11.5843 18.1083C11.7546 18.2775 11.7546 18.5575 11.5843 18.7267L8.01876 22.2675C7.93066 22.355 7.81905 22.3958 7.70745 22.3958Z" fill="#FF755C"/>
<path d="M7.77039 21.604C7.49515 21.604 7.26691 21.2701 7.26691 20.8675V4.3405C7.26691 3.93788 7.49515 3.604 7.77039 3.604C8.04562 3.604 8.27387 3.93788 8.27387 4.3405V20.8675C8.27387 21.2701 8.04562 21.604 7.77039 21.604Z" fill="#FF755C"/>
</svg>
